<?xml version="1.0" standalone="no"?>
<!DOCTYPE svg PUBLIC "-//W3C//DTD SVG 20010904//EN"
 "http://www.w3.org/TR/2001/REC-SVG-20010904/DTD/svg10.dtd">
<svg version="1.0" xmlns="http://www.w3.org/2000/svg"
 width="1280.000000pt" height="640.000000pt" viewBox="0 0 1280.000000 640.000000"
 preserveAspectRatio="xMidYMid meet">
<metadata>
Created by potrace 1.15, written by Peter Selinger 2001-2017
</metadata>
<g transform="translate(0.000000,640.000000) scale(0.100000,-0.100000)"
fill="#000000" stroke="none">
<path d="M8956 6030 c-86 -80 -208 -231 -246 -306 -31 -61 -34 -73 -33 -153 1
-47 9 -121 18 -163 23 -113 78 -290 90 -289 28 3 217 420 245 540 14 59 8 340
-7 395 l-9 28 -58 -52z"/>
<path d="M9520 5680 c-190 -51 -317 -108 -380 -172 -37 -36 -84 -126 -117
-223 -27 -79 -75 -283 -71 -297 4 -10 205 116 317 200 42 31 108 88 147 127
63 62 80 87 148 224 42 85 76 158 76 163 0 11 1 11 -120 -22z"/>
<path d="M7960 5683 c0 -15 51 -198 72 -258 33 -94 83 -187 123 -228 41 -42
137 -94 235 -125 82 -27 278 -74 290 -70 12 4 -100 182 -190 303 -137 185
-191 230 -384 324 -111 54 -146 67 -146 54z"/>
<path d="M8395 4795 c-656 -53 -1301 -203 -1882 -440 -193 -79 -533 -248 -692
-344 -160 -97 -310 -202 -457 -318 -126 -101 -374 -346 -454 -449 l-54 -70
-180 -12 c-482 -33 -894 -116 -1164 -235 l-98 -43 -50 38 c-299 236 -600 413
-786 465 -82 22 -267 22 -403 -2 -191 -32 -476 -112 -679 -189 -38 -14 -70
-25 -72 -24 -1 2 -15 93 -29 203 -15 110 -29 202 -32 205 -5 5 -677 109 -713
110 l-25 0 3 -130 3 -130 -280 0 c-155 0 -281 -1 -281 -3 0 -2 7 -24 16 -49
l15 -46 112 -6 c62 -4 180 -10 262 -14 l150 -7 0 -85 0 -85 -313 -3 c-292 -2
-313 -3 -309 -20 3 -9 11 -40 17 -69 14 -62 -5 -57 290 -73 107 -6 219 -13
247 -16 49 -6 54 -4 63 17 7 18 9 4 7 -59 l-2 -82 80 -25 c44 -13 181 -54 305
-91 124 -36 230 -68 236 -71 6 -2 40 70 79 167 l69 170 126 49 c165 64 353
125 498 160 336 83 478 77 762 -36 182 -71 568 -275 566 -298 -1 -5 -35 -32
-76 -59 -89 -60 -220 -188 -275 -271 -114 -171 -180 -364 -216 -630 -6 -44
-14 -189 -17 -322 l-7 -242 70 -5 c39 -3 252 -10 475 -16 223 -6 449 -13 503
-16 l97 -6 0 58 c1 257 193 516 495 667 273 136 621 178 938 112 471 -97 817
-428 817 -782 0 -39 3 -74 8 -76 4 -3 752 -8 1663 -12 l1656 -7 1 84 c2 211
85 395 258 565 489 485 1458 494 1962 18 186 -175 272 -357 275 -587 l2 -108
35 0 c19 0 168 9 330 19 l294 19 37 39 c146 157 170 725 48 1158 -94 338 -292
602 -521 698 -28 12 -43 30 -77 93 -201 373 -553 736 -952 984 -507 315 -1137
506 -1862 565 -226 18 -681 18 -912 0z"/>
<path d="M10635 2214 c-260 -28 -476 -123 -650 -286 -91 -84 -150 -166 -205
-283 -59 -122 -79 -201 -87 -327 -15 -246 75 -483 256 -671 186 -193 438 -306
721 -323 365 -22 744 155 939 440 49 71 116 221 137 306 27 109 25 307 -4 415
-46 168 -127 303 -257 430 -187 184 -429 286 -708 298 -56 3 -120 3 -142 1z"/>
<path d="M4844 2036 c-213 -41 -392 -128 -534 -263 -166 -155 -255 -338 -267
-543 -29 -492 424 -901 997 -902 496 -2 904 294 991 718 53 255 -37 524 -242
720 -132 125 -275 202 -479 256 -98 26 -362 34 -466 14z"/>
</g>
</svg>
