<?xml version="1.0" encoding="UTF-8"?>
<svg width="1024" height="1024" viewBox="0 0 1024 1024" xmlns="http://www.w3.org/2000/svg">
  <rect width="1024" height="1024" fill="#2563eb" rx="128"/>
  <g transform="translate(256, 384) scale(0.4)">
    <path fill="#ffffff" d="M896 603c-86-80-208-231-246-306-31-61-34-73-33-153 1-47 9-121 18-163 23-113 78-290 90-289 28 3 217 420 245 540 14 59 8 340-7 395l-9 28-58-52zm564-350c-190-51-317-108-380-172-37-36-84-126-117-223-27-79-75-283-71-297 4-10 205 116 317 200 42 31 108 88 147 127 63 62 80 87 148 224 42 85 76 158 76 163 0 11 1 11-120-22zm-1560 3c0-15 51-198 72-258 33-94 83-187 123-228 41-42 137-94 235-125 82-27 278-74 290-70 12 4-100 182-190 303-137 185-191 230-384 324-111 54-146 67-146 54zm435-888c-656-53-1301-203-1882-440-193-79-533-248-692-344-160-97-310-202-457-318-126-101-374-346-454-449l-54-70-180-12c-482-33-894-116-1164-235l-98-43-50 38c-299 236-600 413-786 465-82 22-267 22-403-2-191-32-476-112-679-189-38-14-70-25-72-24-1 2-15 93-29 203-15 110-29 202-32 205-5 5-677 109-713 110l-25 0 3-130 3-130-280 0c-155 0-281-1-281-3 0-2 7-24 16-49l15-46 112-6c62-4 180-10 262-14l150-7 0-85 0-85-313-3c-292-2-313-3-309-20 3-9 11-40 17-69 14-62-5-57 290-73 107-6 219-13 247-16 49-6 54-4 63 17 7 18 9 4 7-59l-2-82 80-25c44-13 181-54 305-91 124-36 230-68 236-71 6-2 40 70 79 167l69 170 126 49c165 64 353 125 498 160 336 83 478 77 762-36 182-71 568-275 566-298-1-5-35-32-76-59-89-60-220-188-275-271-114-171-180-364-216-630-6-44-14-189-17-322l-7-242 70-5c39-3 252-10 475-16 223-6 449-13 503-16l97-6 0 58c1 257 193 516 495 667 273 136 621 178 938 112 471-97 817-428 817-782 0-39 3-74 8-76 4-3 752-8 1663-12l1656-7 1 84c2 211 85 395 258 565 489 485 1458 494 1962 18 186-175 272-357 275-587l2-108 35 0c19 0 168 9 330 19l294 19 37 39c146 157 170 725 48 1158-94 338-292 602-521 698-28 12-43 30-77 93-201 373-553 736-952 984-507 315-1137 506-1862 565-226 18-681 18-912 0z"/>
  </g>
  <text x="512" y="700" font-family="Arial, sans-serif" font-size="120" font-weight="bold" text-anchor="middle" fill="#ffffff">OCPP</text>
</svg>